<svg id="Layer_1" data-name="Layer 1" xmlns="http://www.w3.org/2000/svg" viewBox="0 0 935.63 473.17"><defs><style>.cls-1{fill:#515151;}.cls-2{fill:#fff;}</style></defs><path class="cls-1" d="M35.05,43.11h-28V19.67H91V43.11H63v82.35h-28Z" transform="translate(-0.05 -0.75)"/><path class="cls-1" d="M102.75,12.18h28V38.55l-1.3,14c5.53-4.88,13.35-10.42,24.41-10.42,17.9,0,25.39,13,25.39,33.2v50.13h-28V78.91c0-10.42-2.6-13-8.14-13-5.21,0-8.14,2.28-12.37,6.18v53.38h-28Z" transform="translate(-0.05 -0.75)"/><path class="cls-1" d="M191.61,84.77c0-26.37,19.2-42.64,39.06-42.64,24.09,0,35.48,17.58,35.48,39.39A58.16,58.16,0,0,1,265,93.24H218.63c2.6,9.77,9.77,13,18.88,13,5.53,0,10.74-1.63,16.6-4.88l9.11,16.6a54.87,54.87,0,0,1-29.62,9.44C209.84,127.41,191.61,111.79,191.61,84.77ZM242.39,75c0-6.18-2.6-11.72-11.07-11.72-6.18,0-11.39,3.58-13,11.72Z" transform="translate(-0.05 -0.75)"/><path class="cls-1" d="M313,19.67h31.25c32.22,0,54.36,15,54.36,52.41s-22.13,53.38-52.73,53.38H313ZM342.64,103c15.3,0,27.34-6.18,27.34-30.92s-12-29.95-27.34-29.95H341V103Z" transform="translate(-0.05 -0.75)"/><path class="cls-1" d="M410.34,102.35c0-16.93,13-26.37,44.27-29.62-.65-5.86-4.23-8.46-11.39-8.46-5.86,0-12,2.28-20.51,6.84l-9.77-18.23c11.39-6.84,23.11-10.74,35.81-10.74,21.16,0,33.85,11.39,33.85,38.08v45.24H459.81l-1.95-7.81h-.65c-6.51,5.86-13.67,9.77-22.46,9.77C419.46,127.41,410.34,115.69,410.34,102.35Zm44.27-1.95V89.33c-13.34,2-17.58,6.18-17.58,10.74,0,3.74,2.6,5.86,7.49,5.86C449.08,105.93,451.68,103.65,454.61,100.4Z" transform="translate(-0.05 -0.75)"/><path class="cls-1" d="M493.67,44.08h27.67l6.18,34.18c1.3,8.14,2,16.28,3.25,24.74h.65c1.3-8.46,2.6-16.93,4.56-24.74l7.49-34.18h23.76L575,78.26c2,8.14,3.25,16.28,4.88,24.74h.65c1.3-8.46,1.95-16.6,3.25-24.74L590,44.08h25.71l-18.55,81.38H564.61l-5.86-28.32c-1.3-7.49-2.6-15-3.91-23.92h-.65c-1.3,9-2.28,16.44-3.58,23.92l-5.53,28.32h-31.9Z" transform="translate(-0.05 -0.75)"/><path class="cls-1" d="M627.45,44.08h22.79l2,9.77h.65c6.51-6.18,14.65-11.72,25.71-11.72,17.9,0,25.39,13,25.39,33.2v50.13H676V78.91c0-10.42-2.6-13-8.14-13-5.21,0-8.14,2.28-12.37,6.18v53.38h-28V44.08Z" transform="translate(-0.05 -0.75)"/><path class="cls-1" d="M718.91,20c0-8.14,6.51-14,15.62-14s15.62,5.86,15.62,14-6.51,14-15.62,14S718.91,28.13,718.91,20Zm1.63,24.08h28v81.38h-28Z" transform="translate(-0.05 -0.75)"/><path class="cls-1" d="M765.78,44.08h22.79l1.95,9.77h.65c6.51-6.18,14.65-11.72,25.71-11.72,17.9,0,25.39,13,25.39,33.2v50.13h-28V78.91c0-10.42-2.6-13-8.14-13-5.21,0-8.14,2.28-12.37,6.18v53.38h-28V44.08Z" transform="translate(-0.05 -0.75)"/><path class="cls-1" d="M854.32,138.8c0-6.67,3.91-11.72,11.39-15.62v-.65c-4.23-2.93-7.49-7.16-7.49-14,0-5.53,3.58-11.39,9.11-15.3v-.65a25.23,25.23,0,0,1-11.07-20.83c0-20.18,16.93-29.62,34.83-29.62a42,42,0,0,1,13,1.95h30.27V64.26H922.66a28.92,28.92,0,0,1,1.3,8.46c0,19.2-14.65,27-32.88,27A41,41,0,0,1,882,98.6c-1.63,1.46-2,2.44-2,4.72,0,3.58,3.26,4.88,11.39,4.88h12.21c20.34,0,32.06,6.18,32.06,21.16,0,17.58-18.23,29.62-47.2,29.62C869.94,159,854.32,153.45,854.32,138.8ZM909,134.25c0-4.23-3.91-4.88-10.9-4.88h-6.35c-6.51,0-9.44-.33-11.72-1-1.95,2-2.93,3.58-2.93,5.86,0,5.21,6.51,7.49,15.95,7.49C902.17,141.73,909,138.8,909,134.25Zm-9.11-62.5c0-7.49-3.58-11.07-8.79-11.07s-8.79,3.58-8.79,11.07c0,7.81,3.58,11.39,8.79,11.39S899.89,79.56,899.89,71.75Z" transform="translate(-0.05 -0.75)"/><path class="cls-1" d="M168.17,258c0-27,19.53-42.64,40.36-42.64S248.9,231,248.9,258s-19.53,42.64-40.36,42.64S168.17,285,168.17,258Zm52.08,0c0-12.37-3.25-20.18-11.72-20.18s-11.72,7.81-11.72,20.18,3.25,20.18,11.72,20.18S220.25,270.39,220.25,258Z" transform="translate(-0.05 -0.75)"/><path class="cls-1" d="M256.06,218.31l12.37-1h40v21.81H256.06Zm10.74-1.95c0-17.41,8.14-32.88,32.22-32.88a51.8,51.8,0,0,1,17.25,2.93l-4.88,20.51a24,24,0,0,0-8.14-1.63c-5.21,0-8.46,2.44-8.46,10.09v83.33h-28Z" transform="translate(-0.05 -0.75)"/><path class="cls-1" d="M346.54,275.6c0-16.93,13-26.37,44.27-29.62-.65-5.86-4.23-8.46-11.39-8.46-5.86,0-12,2.28-20.51,6.84l-9.77-18.23c11.39-6.84,23.11-10.74,35.81-10.74,21.16,0,33.85,11.39,33.85,38.08v45.24H396l-1.95-7.81h-.65c-6.51,5.86-13.67,9.77-22.46,9.77C355.66,300.66,346.54,288.94,346.54,275.6Zm44.27-2V262.58c-13.34,1.95-17.58,6.18-17.58,10.74,0,3.74,2.6,5.86,7.49,5.86C385.28,279.18,387.88,276.9,390.81,273.65Z" transform="translate(-0.05 -0.75)"/><path class="cls-1" d="M468.61,192.92h28.64l23.44,47.2,10.09,23.76h.65c-1.3-11.39-3.58-27.34-3.58-40.36v-30.6h26.69V298.71H525.9l-23.44-47.36-10.09-23.6h-.65c1.3,12,3.58,27.34,3.58,40.36v30.6H468.61V192.92Z" transform="translate(-0.05 -0.75)"/><path class="cls-1" d="M569.84,258c0-26.37,19.2-42.64,39.06-42.64,24.09,0,35.48,17.58,35.48,39.39a58.16,58.16,0,0,1-1.14,11.72H596.86c2.6,9.77,9.76,13,18.88,13,5.53,0,10.74-1.63,16.6-4.88l9.11,16.6a54.87,54.87,0,0,1-29.62,9.44C588.06,300.66,569.84,285,569.84,258Zm50.77-9.76c0-6.18-2.6-11.72-11.07-11.72-6.18,0-11.39,3.58-13,11.72Z" transform="translate(-0.05 -0.75)"/><path class="cls-1" d="M652.51,217.33h27.67l6.18,34.18c1.3,8.14,1.95,16.28,3.25,24.74h.65c1.3-8.46,2.6-16.93,4.56-24.74l7.49-34.18h23.76l7.81,34.18c2,8.14,3.25,16.28,4.88,24.74h.65c1.3-8.46,2-16.6,3.25-24.74l6.18-34.18h25.71L756,298.71H723.45l-5.86-28.32c-1.3-7.49-2.6-15-3.91-23.92H713c-1.3,8.95-2.28,16.44-3.58,23.92l-5.53,28.32H672Z" transform="translate(-0.05 -0.75)"/><path class="cls-1" d="M24.47,366.17h40c22.79,0,42.32,7.81,42.32,34.18,0,25.55-19.53,36.13-42.32,36.13h-12V472h-28Zm38.08,48.18c11.07,0,16.93-4.88,16.93-14s-5.86-12-16.93-12H52.46v26Zm-3.09,14.81,18.88-18.55L112.68,472H81.43Z" transform="translate(-0.05 -0.75)"/><path class="cls-1" d="M118.86,431.27c0-26.37,19.2-42.64,39.06-42.64,24.09,0,35.48,17.58,35.48,39.39a58.16,58.16,0,0,1-1.14,11.72H145.88c2.6,9.76,9.77,13,18.88,13,5.53,0,10.74-1.63,16.6-4.88l9.11,16.6a54.87,54.87,0,0,1-29.62,9.44C137.09,473.91,118.86,458.29,118.86,431.27Zm50.78-9.76c0-6.18-2.6-11.72-11.07-11.72-6.18,0-11.39,3.58-13,11.72Z" transform="translate(-0.05 -0.75)"/><path class="cls-1" d="M201.21,391.56l12.37-1h40v21.81H201.21V391.56ZM212,389.61c0-17.41,8.14-32.88,32.22-32.88a51.8,51.8,0,0,1,17.25,2.93l-4.88,20.51a24,24,0,0,0-8.14-1.63c-5.21,0-8.46,2.44-8.46,10.09V472H212V389.61Z" transform="translate(-0.05 -0.75)"/><path class="cls-1" d="M259.8,431.27c0-27,19.53-42.64,40.36-42.64s40.36,15.62,40.36,42.64S321,473.91,300.16,473.91,259.8,458.29,259.8,431.27Zm52.08,0c0-12.37-3.25-20.18-11.72-20.18s-11.72,7.81-11.72,20.18,3.25,20.18,11.72,20.18S311.88,443.64,311.88,431.27Z" transform="translate(-0.05 -0.75)"/><path class="cls-1" d="M353.54,390.58h22.79l1.95,14h.65c6-11.07,15.14-15.95,23.11-15.95,5,0,7.81.65,10.09,1.63l-4.56,24.09a38.45,38.45,0,0,0-9.11-1.3c-5.86,0-13,3.58-16.93,13.67V472h-28V390.58Z" transform="translate(-0.05 -0.75)"/><path class="cls-1" d="M419.94,390.58h22.79l1.95,9.93h.65c6.51-6.35,13.35-11.88,24.41-11.88s18.07,4.56,22.46,13c6.67-6.83,14-13,25.06-13,17.9,0,25.71,13,25.71,33.2V472H515V425.41c0-10.42-2.6-13-8.14-13-3.25,0-7.16,1.95-11.39,6.18V472h-28V425.4c0-10.42-2.6-13-8.14-13-3.25,0-7.16,1.95-11.39,6.18v53.38h-28Z" transform="translate(-0.05 -0.75)"/><path class="cls-1" d="M556.33,448.85c0-16.93,13-26.37,44.27-29.62-.65-5.86-4.23-8.46-11.39-8.46-5.86,0-12,2.28-20.51,6.84l-9.77-18.23c11.39-6.83,23.11-10.74,35.81-10.74,21.16,0,33.85,11.39,33.85,38.08V472H605.8l-1.95-7.81h-.65c-6.51,5.86-13.67,9.77-22.46,9.77C565.44,473.91,556.33,462.19,556.33,448.85Zm44.26-2V435.83C587.25,437.78,583,442,583,446.57c0,3.74,2.6,5.86,7.49,5.86C595.06,452.43,597.67,450.15,600.59,446.9Z" transform="translate(-0.05 -0.75)"/><path class="cls-1" d="M648.77,440.71V412.39H638V391.56l12.37-1,3.25-21.16h23.11v21.16h18.55v21.81H676.76v27.83c0,8.95,4.56,11.88,9.77,11.88a23.43,23.43,0,0,0,7.16-1.3L697.92,471a61.5,61.5,0,0,1-19.21,2.93C657.56,473.91,648.77,460.57,648.77,440.71Z" transform="translate(-0.05 -0.75)"/><path class="cls-1" d="M707,366.5c0-8.14,6.51-14,15.62-14s15.62,5.86,15.62,14-6.51,14-15.62,14S707,374.63,707,366.5Zm1.63,24.08h28V472h-28Z" transform="translate(-0.05 -0.75)"/><path class="cls-1" d="M749.67,431.27c0-27,19.53-42.64,40.36-42.64s40.36,15.62,40.36,42.64S810.86,473.91,790,473.91,749.67,458.29,749.67,431.27Zm52.08,0c0-12.37-3.25-20.18-11.72-20.18s-11.72,7.81-11.72,20.18,3.26,20.18,11.72,20.18S801.75,443.64,801.75,431.27Z" transform="translate(-0.05 -0.75)"/><path class="cls-1" d="M843.42,390.58h22.79l1.95,9.76h.65c6.51-6.18,14.65-11.72,25.71-11.72,17.9,0,25.39,13,25.39,33.2V472h-28V425.4c0-10.42-2.6-13-8.14-13-5.21,0-8.14,2.28-12.37,6.18v53.38h-28V390.58Z" transform="translate(-0.05 -0.75)"/><path class="cls-2" d="M28.05,37.86H.05V14.42H84V37.86H56v82.35h-28Z" transform="translate(-0.05 -0.75)"/><path class="cls-2" d="M95.75,6.93h28V33.3l-1.3,14c5.53-4.88,13.35-10.42,24.41-10.42,17.9,0,25.39,13,25.39,33.2v50.13h-28V73.66c0-10.42-2.6-13-8.14-13-5.21,0-8.14,2.28-12.37,6.18V120.2h-28Z" transform="translate(-0.05 -0.75)"/><path class="cls-2" d="M184.61,79.52c0-26.37,19.2-42.64,39.06-42.64,24.09,0,35.48,17.58,35.48,39.39A58.16,58.16,0,0,1,258,88H211.63c2.6,9.77,9.77,13,18.88,13,5.53,0,10.74-1.63,16.6-4.88l9.11,16.6a54.87,54.87,0,0,1-29.62,9.44C202.84,122.16,184.61,106.54,184.61,79.52Zm50.78-9.76c0-6.18-2.6-11.72-11.07-11.72-6.18,0-11.39,3.58-13,11.72Z" transform="translate(-0.05 -0.75)"/><path class="cls-2" d="M306,14.42h31.25c32.22,0,54.36,15,54.36,52.41s-22.13,53.38-52.73,53.38H306Zm29.62,83.33c15.3,0,27.34-6.18,27.34-30.92s-12-29.95-27.34-29.95H334V97.75Z" transform="translate(-0.05 -0.75)"/><path class="cls-2" d="M403.34,97.1c0-16.93,13-26.37,44.27-29.62C447,61.62,443.38,59,436.22,59c-5.86,0-12,2.28-20.51,6.84l-9.77-18.23c11.39-6.84,23.11-10.74,35.81-10.74,21.16,0,33.85,11.39,33.85,38.08v45.24H452.81l-1.95-7.81h-.65c-6.51,5.86-13.67,9.77-22.46,9.77C412.46,122.16,403.34,110.44,403.34,97.1Zm44.27-1.95V84.08C434.27,86,430,90.26,430,94.82c0,3.74,2.6,5.86,7.49,5.86C442.08,100.68,444.68,98.4,447.61,95.15Z" transform="translate(-0.05 -0.75)"/><path class="cls-2" d="M486.67,38.83h27.67L520.52,73c1.3,8.14,2,16.28,3.25,24.74h.65C525.72,89.29,527,80.82,529,73l7.49-34.18h23.76L568,73c2,8.14,3.25,16.28,4.88,24.74h.65c1.3-8.46,1.95-16.6,3.25-24.74L583,38.83h25.71l-18.55,81.38H557.61l-5.86-28.32c-1.3-7.49-2.6-15-3.91-23.92h-.65c-1.3,9-2.28,16.44-3.58,23.92l-5.53,28.32h-31.9Z" transform="translate(-0.05 -0.75)"/><path class="cls-2" d="M620.45,38.83h22.79l2,9.77h.65c6.51-6.18,14.65-11.72,25.71-11.72,17.9,0,25.39,13,25.39,33.2v50.13H669V73.66c0-10.42-2.6-13-8.14-13-5.21,0-8.14,2.28-12.37,6.18V120.2h-28V38.83Z" transform="translate(-0.05 -0.75)"/><path class="cls-2" d="M711.91,14.75c0-8.14,6.51-14,15.62-14s15.62,5.86,15.62,14-6.51,14-15.62,14S711.91,22.88,711.91,14.75Zm1.63,24.08h28v81.38h-28Z" transform="translate(-0.05 -0.75)"/><path class="cls-2" d="M758.78,38.83h22.79l1.95,9.77h.65c6.51-6.18,14.65-11.72,25.71-11.72,17.9,0,25.39,13,25.39,33.2v50.13h-28V73.66c0-10.42-2.6-13-8.14-13-5.21,0-8.14,2.28-12.37,6.18V120.2h-28V38.83Z" transform="translate(-0.05 -0.75)"/><path class="cls-2" d="M847.32,133.55c0-6.67,3.91-11.72,11.39-15.62v-.65c-4.23-2.93-7.49-7.16-7.49-14,0-5.53,3.58-11.39,9.11-15.3v-.65A25.23,25.23,0,0,1,849.26,66.5c0-20.18,16.93-29.62,34.83-29.62a42,42,0,0,1,13,1.95h30.27V59H915.66a28.92,28.92,0,0,1,1.3,8.46c0,19.2-14.65,27-32.88,27A41,41,0,0,1,875,93.35c-1.63,1.46-2,2.44-2,4.72,0,3.58,3.26,4.88,11.39,4.88h12.21c20.34,0,32.06,6.18,32.06,21.16,0,17.58-18.23,29.62-47.2,29.62C862.94,153.73,847.32,148.2,847.32,133.55ZM902,129c0-4.23-3.91-4.88-10.9-4.88h-6.35c-6.51,0-9.44-.33-11.72-1-1.95,2-2.93,3.58-2.93,5.86,0,5.21,6.51,7.49,15.95,7.49C895.17,136.48,902,133.55,902,129Zm-9.11-62.5c0-7.49-3.58-11.07-8.79-11.07S875.31,59,875.31,66.5c0,7.81,3.58,11.39,8.79,11.39S892.89,74.31,892.89,66.5Z" transform="translate(-0.05 -0.75)"/><path class="cls-2" d="M161.17,252.77c0-27,19.53-42.64,40.36-42.64s40.36,15.62,40.36,42.64-19.53,42.64-40.36,42.64S161.17,279.79,161.17,252.77Zm52.08,0c0-12.37-3.25-20.18-11.72-20.18s-11.72,7.81-11.72,20.18S193.06,273,201.53,273,213.25,265.14,213.25,252.77Z" transform="translate(-0.05 -0.75)"/><path class="cls-2" d="M249.06,213.06l12.37-1h40v21.81H249.06Zm10.74-1.95c0-17.41,8.14-32.88,32.22-32.88a51.8,51.8,0,0,1,17.25,2.93l-4.88,20.51a24,24,0,0,0-8.14-1.63c-5.21,0-8.46,2.44-8.46,10.09v83.33h-28Z" transform="translate(-0.05 -0.75)"/><path class="cls-2" d="M339.54,270.35c0-16.93,13-26.37,44.27-29.62-.65-5.86-4.23-8.46-11.39-8.46-5.86,0-12,2.28-20.51,6.84l-9.76-18.23c11.39-6.84,23.11-10.74,35.8-10.74,21.16,0,33.85,11.39,33.85,38.08v45.24H389l-1.95-7.81h-.65c-6.51,5.86-13.67,9.77-22.46,9.77C348.66,295.41,339.54,283.69,339.54,270.35Zm44.27-2V257.33c-13.35,1.95-17.58,6.18-17.58,10.74,0,3.74,2.6,5.86,7.49,5.86C378.28,273.93,380.88,271.65,383.81,268.4Z" transform="translate(-0.05 -0.75)"/><path class="cls-2" d="M461.61,187.67h28.64l23.44,47.2,10.09,23.76h.65c-1.3-11.39-3.58-27.34-3.58-40.36v-30.6h26.69V293.46H518.9L495.46,246.1l-10.09-23.6h-.65c1.3,12,3.58,27.34,3.58,40.36v30.6H461.61V187.67Z" transform="translate(-0.05 -0.75)"/><path class="cls-2" d="M562.84,252.77c0-26.37,19.2-42.64,39.06-42.64,24.09,0,35.48,17.58,35.48,39.39a58.16,58.16,0,0,1-1.14,11.72H589.86c2.6,9.77,9.76,13,18.88,13,5.53,0,10.74-1.63,16.6-4.88l9.11,16.6a54.87,54.87,0,0,1-29.62,9.44C581.06,295.41,562.84,279.79,562.84,252.77ZM613.61,243c0-6.18-2.6-11.72-11.07-11.72-6.18,0-11.39,3.58-13,11.72Z" transform="translate(-0.05 -0.75)"/><path class="cls-2" d="M645.51,212.08h27.67l6.18,34.18c1.3,8.14,1.95,16.28,3.25,24.74h.65c1.3-8.46,2.6-16.93,4.56-24.74l7.49-34.18h23.76l7.81,34.18c2,8.14,3.25,16.28,4.88,24.74h.65c1.3-8.46,2-16.6,3.25-24.74l6.18-34.18h25.71L749,293.46H716.45l-5.86-28.32c-1.3-7.49-2.6-15-3.91-23.92H706c-1.3,8.95-2.28,16.44-3.58,23.92l-5.53,28.32H665Z" transform="translate(-0.05 -0.75)"/><path class="cls-2" d="M17.47,360.92h40c22.79,0,42.32,7.81,42.32,34.18,0,25.55-19.53,36.13-42.32,36.13h-12v35.48h-28ZM55.55,409.1c11.07,0,16.93-4.88,16.93-14s-5.86-12-16.93-12H45.46v26Zm-3.09,14.81,18.88-18.55,34.34,61.36H74.43Z" transform="translate(-0.05 -0.75)"/><path class="cls-2" d="M111.86,426c0-26.37,19.2-42.64,39.06-42.64,24.09,0,35.48,17.58,35.48,39.39a58.16,58.16,0,0,1-1.14,11.72H138.88c2.6,9.76,9.77,13,18.88,13,5.53,0,10.74-1.63,16.6-4.88l9.11,16.6a54.87,54.87,0,0,1-29.62,9.44C130.09,468.66,111.86,453,111.86,426Zm50.78-9.76c0-6.18-2.6-11.72-11.07-11.72-6.18,0-11.39,3.58-13,11.72Z" transform="translate(-0.05 -0.75)"/><path class="cls-2" d="M194.21,386.31l12.37-1h40v21.81H194.21V386.31ZM205,384.36c0-17.41,8.14-32.88,32.22-32.88a51.8,51.8,0,0,1,17.25,2.93l-4.88,20.51a24,24,0,0,0-8.14-1.63c-5.21,0-8.46,2.44-8.46,10.09v83.33H205V384.36Z" transform="translate(-0.05 -0.75)"/><path class="cls-2" d="M252.8,426c0-27,19.53-42.64,40.36-42.64S333.52,399,333.52,426,314,468.66,293.16,468.66,252.8,453,252.8,426Zm52.08,0c0-12.37-3.25-20.18-11.72-20.18s-11.72,7.81-11.72,20.18,3.25,20.18,11.72,20.18S304.88,438.39,304.88,426Z" transform="translate(-0.05 -0.75)"/><path class="cls-2" d="M346.54,385.33h22.79l1.95,14h.65c6-11.07,15.14-15.95,23.11-15.95,5,0,7.81.65,10.09,1.63l-4.56,24.09a38.45,38.45,0,0,0-9.11-1.3c-5.86,0-13,3.58-16.93,13.67v45.24h-28V385.33Z" transform="translate(-0.05 -0.75)"/><path class="cls-2" d="M412.94,385.33h22.79l1.95,9.93h.65c6.51-6.35,13.35-11.88,24.41-11.88s18.07,4.56,22.46,13c6.67-6.83,14-13,25.06-13,17.9,0,25.71,13,25.71,33.2v50.13H508V420.16c0-10.42-2.6-13-8.14-13-3.25,0-7.16,1.95-11.39,6.18V466.7h-28V420.15c0-10.42-2.6-13-8.14-13-3.25,0-7.16,1.95-11.39,6.18v53.38h-28Z" transform="translate(-0.05 -0.75)"/><path class="cls-2" d="M549.33,443.6c0-16.93,13-26.37,44.27-29.62-.65-5.86-4.23-8.46-11.39-8.46-5.86,0-12,2.28-20.51,6.84l-9.77-18.23c11.39-6.83,23.11-10.74,35.81-10.74,21.16,0,33.85,11.39,33.85,38.08v45.24H598.8l-1.95-7.81h-.65c-6.51,5.86-13.67,9.77-22.46,9.77C558.44,468.66,549.33,456.94,549.33,443.6Zm44.26-2V430.58c-13.34,1.95-17.58,6.18-17.58,10.74,0,3.74,2.6,5.86,7.49,5.86C588.06,447.18,590.67,444.9,593.59,441.65Z" transform="translate(-0.05 -0.75)"/><path class="cls-2" d="M641.77,435.46V407.14H631V386.31l12.37-1,3.25-21.16h23.11v21.16h18.55v21.81H669.76V435c0,8.95,4.56,11.88,9.77,11.88a23.43,23.43,0,0,0,7.16-1.3l4.23,20.18a61.5,61.5,0,0,1-19.21,2.93C650.56,468.66,641.77,455.32,641.77,435.46Z" transform="translate(-0.05 -0.75)"/><path class="cls-2" d="M700,361.25c0-8.14,6.51-14,15.62-14s15.62,5.86,15.62,14-6.51,14-15.62,14S700,369.38,700,361.25Zm1.63,24.08h28v81.38h-28Z" transform="translate(-0.05 -0.75)"/><path class="cls-2" d="M742.67,426c0-27,19.53-42.64,40.36-42.64S823.39,399,823.39,426,803.86,468.66,783,468.66,742.67,453,742.67,426Zm52.08,0c0-12.37-3.25-20.18-11.72-20.18s-11.72,7.81-11.72,20.18S774.57,446.2,783,446.2,794.75,438.39,794.75,426Z" transform="translate(-0.05 -0.75)"/><path class="cls-2" d="M836.42,385.33h22.79l1.95,9.76h.65c6.51-6.18,14.65-11.72,25.71-11.72,17.9,0,25.39,13,25.39,33.2V466.7h-28V420.15c0-10.42-2.6-13-8.14-13-5.21,0-8.14,2.28-12.37,6.18v53.38h-28V385.33Z" transform="translate(-0.05 -0.75)"/></svg>